<svg width="50" height="50" viewBox="0 0 50 50" fill="none" xmlns="http://www.w3.org/2000/svg">
<g clip-path="url(#clip0_205_326)">
<path d="M14.0906 22.426C14.0906 23.0479 14.1573 23.5511 14.274 23.9208C14.4073 24.2906 14.5729 24.6938 14.8063 25.1302C14.8896 25.2646 14.9229 25.399 14.9229 25.5167C14.9229 25.6844 14.8229 25.8521 14.6073 26.0208L13.5594 26.726C13.4094 26.8271 13.2604 26.8771 13.1271 26.8771C12.9604 26.8771 12.7948 26.7927 12.6281 26.6417C12.3948 26.3896 12.1958 26.1208 12.0292 25.8521C11.8625 25.5667 11.6969 25.2479 11.5135 24.8615C10.2167 26.4063 8.58646 27.1792 6.62396 27.1792C5.22708 27.1792 4.1125 26.776 3.29792 25.9698C2.48333 25.1635 2.06771 24.0885 2.06771 22.7448C2.06771 21.3177 2.56667 20.1583 3.58125 19.2854C4.59583 18.4125 5.94271 17.975 7.65521 17.975C8.22083 17.975 8.80313 18.025 9.41771 18.1094C10.0323 18.1938 10.6646 18.3281 11.3302 18.4792V17.2531C11.3302 15.9771 11.0646 15.0865 10.549 14.5656C10.0167 14.0448 9.11875 13.7927 7.83854 13.7927C7.25625 13.7927 6.65833 13.8594 6.04271 14.0115C5.42708 14.1625 4.82917 14.3469 4.24688 14.5823C3.98125 14.7 3.78125 14.7667 3.66458 14.8011C3.54792 14.8344 3.46458 14.8511 3.39896 14.8511C3.16563 14.8511 3.05 14.6833 3.05 14.3302V13.5073C3.05 13.2386 3.08333 13.0375 3.16667 12.9198C3.25 12.8021 3.4 12.6844 3.63229 12.5667C4.21458 12.2646 4.9125 12.0125 5.72813 11.8104C6.54271 11.5917 7.40729 11.4917 8.32188 11.4917C10.301 11.4917 11.7479 11.9448 12.6792 12.8521C13.5938 13.7594 14.0594 15.1365 14.0594 16.9833V22.425L14.0906 22.426ZM7.33854 24.9781C7.8875 24.9781 8.45313 24.8771 9.05104 24.676C9.65 24.475 10.1823 24.1052 10.6313 23.601C10.8969 23.2823 11.0969 22.9292 11.1969 22.5261C11.2969 22.1229 11.3635 21.6354 11.3635 21.0646V20.3594C10.8813 20.2417 10.3656 20.1406 9.83333 20.074C9.30104 20.0073 8.78542 19.9729 8.26979 19.9729C7.15521 19.9729 6.34063 20.1917 5.79167 20.6448C5.24271 21.0979 4.97708 21.7365 4.97708 22.5761C4.97708 23.3656 5.17708 23.9531 5.59271 24.3563C5.99167 24.7771 6.57396 24.9781 7.33854 24.9781ZM20.6927 26.7927C20.3937 26.7927 20.1937 26.7427 20.0604 26.625C19.9271 26.524 19.8115 26.2896 19.7115 25.9698L15.8031 12.9875C15.7031 12.6521 15.6531 12.4333 15.6531 12.3156C15.6531 12.0469 15.7865 11.8958 16.0521 11.8958H17.6823C17.9979 11.8958 18.2146 11.9458 18.3312 12.0636C18.4646 12.1646 18.5635 12.399 18.6635 12.7188L21.4573 23.8375L24.051 12.7188C24.1344 12.3833 24.2344 12.1646 24.3667 12.0636C24.5 11.9625 24.7323 11.8958 25.0323 11.8958H26.3625C26.6781 11.8958 26.8948 11.9458 27.0281 12.0636C27.1615 12.1646 27.2771 12.399 27.3437 12.7188L29.9708 23.9719L32.8479 12.7188C32.9479 12.3833 33.0646 12.1646 33.1802 12.0636C33.3135 11.9625 33.5292 11.8958 33.8292 11.8958H35.376C35.6417 11.8958 35.7917 12.0302 35.7917 12.3156C35.7917 12.4 35.775 12.4833 35.7583 12.5844C35.7417 12.6854 35.7083 12.8198 35.6417 13.0042L31.6344 25.9865C31.5344 26.3219 31.4177 26.5406 31.2854 26.6417C31.1531 26.7427 30.9365 26.8094 30.6531 26.8094H29.2229C28.9073 26.8094 28.6906 26.7594 28.5573 26.6417C28.424 26.524 28.3083 26.3063 28.2417 25.9698L25.6646 15.1365L23.1042 25.9531C23.0208 26.2886 22.9208 26.5073 22.7885 26.625C22.6552 26.7427 22.4229 26.7927 22.1229 26.7927H20.6927ZM42.0615 27.2458C41.1969 27.2458 40.3323 27.1448 39.501 26.9438C38.6698 26.7427 38.0208 26.524 37.5885 26.2719C37.3229 26.1208 37.1396 25.9531 37.0729 25.8021C37.0062 25.6511 36.9729 25.4833 36.9729 25.3323V24.476C36.9729 24.1229 37.1062 23.9552 37.3552 23.9552C37.4552 23.9552 37.5552 23.9719 37.6542 24.0052C37.7542 24.0386 37.9031 24.1063 38.0698 24.1729C38.6354 24.425 39.25 24.6261 39.899 24.7604C40.5646 24.8948 41.2125 24.9615 41.8781 24.9615C42.926 24.9615 43.7406 24.7771 44.3062 24.4073C44.8719 24.0375 45.1708 23.5 45.1708 22.8115C45.1708 22.3417 45.0208 21.9552 44.7219 21.6354C44.4229 21.3167 43.8573 21.0313 43.0427 20.7625L40.6312 20.0063C39.4177 19.6198 38.5198 19.049 37.9708 18.2927C37.4219 17.5542 37.1396 16.7313 37.1396 15.8573C37.1396 15.1521 37.2896 14.5302 37.5885 13.9927C37.8875 13.4552 38.2875 12.9854 38.7854 12.6156C39.2844 12.2292 39.85 11.9438 40.5146 11.7427C41.1802 11.5427 41.8781 11.4583 42.6104 11.4583C42.976 11.4583 43.3583 11.475 43.725 11.525C44.1073 11.575 44.4562 11.6427 44.8062 11.7094C45.1385 11.7938 45.4552 11.8771 45.7542 11.9781C46.0531 12.0792 46.2865 12.1792 46.4531 12.2802C46.6865 12.4146 46.8521 12.549 46.9521 12.7C47.0521 12.8344 47.1021 13.0188 47.1021 13.2542V14.0438C47.1021 14.3969 46.9688 14.5813 46.7198 14.5813C46.5865 14.5813 46.3708 14.5146 46.0875 14.3802C45.1396 13.9438 44.075 13.725 42.8948 13.725C41.9469 13.725 41.199 13.8761 40.6833 14.1948C40.1677 14.5136 39.9021 15.0011 39.9021 15.6896C39.9021 16.1594 40.0687 16.5625 40.401 16.8823C40.7333 17.2011 41.349 17.5208 42.2302 17.8063L44.5917 18.5625C45.7885 18.949 46.6542 19.4865 47.1687 20.175C47.6833 20.8636 47.9333 21.6531 47.9333 22.5261C47.9333 23.2479 47.7833 23.9031 47.501 24.474C47.2021 25.0448 46.8021 25.549 46.2875 25.9521C45.7719 26.3719 45.1562 26.674 44.4417 26.8927C43.6906 27.1281 42.9094 27.2458 42.0615 27.2458Z" fill="#252F3E"/>
<path d="M45.204 35.4083C39.7332 39.4896 31.7842 41.6562 24.9488 41.6562C15.3707 41.6562 6.73941 38.0792 0.220658 32.1333C-0.294967 31.6635 0.170658 31.025 0.786283 31.3948C7.83732 35.526 16.5342 38.0292 25.5311 38.0292C31.6009 38.0292 38.2696 36.7531 44.405 34.1323C45.3207 33.7125 46.1019 34.7365 45.204 35.4083ZM47.4821 32.7885C46.7832 31.8812 42.8592 32.3521 41.08 32.5698C40.5477 32.6365 40.4644 32.1667 40.9467 31.8135C44.0727 29.5969 49.2113 30.2344 49.8102 30.974C50.4092 31.7302 49.6436 36.9198 46.7175 39.4052C46.2686 39.7917 45.8363 39.5896 46.0352 39.0865C46.7009 37.424 48.1811 33.6781 47.4821 32.7885Z" fill="#252F3E"/>
</g>
<defs>
<clipPath id="clip0_205_326">
<rect width="50" height="50" fill="white"/>
</clipPath>
</defs>
</svg>
