<svg width="31" height="14" viewBox="0 0 31 14" fill="none" xmlns="http://www.w3.org/2000/svg">
<path d="M5 5C5 3.89543 5.89543 3 7 3H24C25.1046 3 26 3.89543 26 5V10C26 11.1046 25.1046 12 24 12H7C5.89543 12 5 11.1046 5 10V5Z" fill="black"/>
<path opacity="0.35" d="M3.5 5C3.5 3.067 5.067 1.5 7 1.5H24C25.933 1.5 27.5 3.067 27.5 5V10C27.5 11.933 25.933 13.5 24 13.5H7C5.067 13.5 3.5 11.933 3.5 10V5Z" stroke="black" stroke-opacity="0.5"/>
<path opacity="0.4" d="M29 5V9.22034C29.8491 8.86291 30.4012 8.0314 30.4012 7.11017C30.4012 6.18894 29.8491 5.35744 29 5Z" fill="black" fill-opacity="0.5"/>
</svg>
