<svg width="24" height="24" viewBox="0 0 24 24" fill="none" xmlns="http://www.w3.org/2000/svg">
<path d="M3.25 20V4C3.25 3.58579 3.58579 3.25 4 3.25C4.41421 3.25 4.75 3.58579 4.75 4V18C4.75 18.6904 5.30964 19.25 6 19.25H20C20.4142 19.25 20.75 19.5858 20.75 20C20.75 20.4142 20.4142 20.75 20 20.75H4C3.80109 20.75 3.61032 20.671 3.46967 20.5303C3.32902 20.3897 3.25 20.1989 3.25 20Z" fill="#FFA200" stroke="black" stroke-width="0.5"/>
<path d="M15.4699 14.5304L15.4698 14.5302L13.8839 12.9443C13.3957 12.4562 12.6043 12.4562 12.1161 12.9443L9.23722 15.8232C8.94439 16.1161 8.46961 16.1161 8.17678 15.8232C7.88394 15.5304 7.88394 15.0556 8.17677 14.7628L12.4698 10.4698L12.4699 10.4696C12.5395 10.3999 12.6221 10.3447 12.7131 10.3069C12.804 10.2692 12.9015 10.2498 13 10.2498C13.0985 10.2498 13.196 10.2692 13.2869 10.3069C13.3779 10.3447 13.4605 10.3999 13.5301 10.4696L13.5302 10.4698L15.1161 12.0557C15.6043 12.5438 16.3957 12.5438 16.8839 12.0557L19.7628 9.17678C20.0556 8.88394 20.5304 8.88394 20.8232 9.17678C21.1161 9.46961 21.1161 9.94439 20.8232 10.2372L16.5302 14.5302L16.5301 14.5304C16.4605 14.6001 16.3779 14.6553 16.2869 14.6931C16.196 14.7308 16.0985 14.7502 16 14.7502C15.9015 14.7502 15.804 14.7308 15.7131 14.6931C15.6221 14.6553 15.5395 14.6001 15.4699 14.5304Z" fill="#FFA200" stroke="black" stroke-width="0.5"/>
</svg>
