<svg width="51" height="50" viewBox="0 0 51 50" fill="none" xmlns="http://www.w3.org/2000/svg">
<g clip-path="url(#clip0_205_117)">
<path fill-rule="evenodd" clip-rule="evenodd" d="M38.0933 20.4559C38.942 21.2047 40.3182 21.2047 41.1668 20.4559C42.0155 19.7071 42.0155 18.4928 41.1668 17.744L29.9702 7.8645L43.5272 0.958187C46.6977 -0.656939 50.6607 1.36197 50.6607 4.59222V25.6985L34.2728 29.1578C33.1053 29.4043 32.3855 30.439 32.6648 31.469C32.944 32.4991 34.1168 33.1343 35.2842 32.8878L50.6607 29.6419V45.4078C50.6607 48.638 46.6977 50.6569 43.5272 49.0418L24.6657 39.4332L27.3048 22.6147C27.4695 21.5656 26.6392 20.5975 25.4502 20.4522C24.2612 20.3069 23.1638 21.0396 22.9993 22.0887L20.6023 37.3632L3.46688 28.634C0.296408 27.0188 0.29641 22.981 3.46688 21.3659L26.073 9.84978L38.0933 20.4559Z" fill="url(#paint0_linear_205_117)"/>
</g>
<defs>
<linearGradient id="paint0_linear_205_117" x1="20.4315" y1="8.06026" x2="45.5816" y2="52.3535" gradientUnits="userSpaceOnUse">
<stop stop-color="#FF61A2"/>
<stop offset="1" stop-color="#D8005A"/>
</linearGradient>
<clipPath id="clip0_205_117">
<rect width="50" height="50" fill="white" transform="translate(0.875)"/>
</clipPath>
</defs>
</svg>
