<svg width="50" height="50" viewBox="0 0 50 50" fill="none" xmlns="http://www.w3.org/2000/svg">
<g clip-path="url(#clip0_205_216)">
<path d="M47.5528 38.7931C46.575 37.8167 42.1958 35.0972 37.9208 32.7319C40.2764 29.3569 41.6667 25.2597 41.6667 20.8333C41.6667 9.32778 32.3389 0 20.8333 0C9.32639 0 0 9.32778 0 20.8333C0 32.3389 9.32639 41.6667 20.8333 41.6667C25.2208 41.6667 29.2861 40.3042 32.6444 37.9875C35.0125 42.2667 37.7361 46.6542 38.7139 47.6319C40.6778 49.5958 43.0556 50.0028 44.4444 50C46.0792 49.9972 50.0764 45.9986 50 44.4444C49.9319 43.0569 49.5167 40.7569 47.5528 38.7931Z" fill="#292F33"/>
<path d="M20.8334 37.5C30.0381 37.5 37.5 30.0381 37.5 20.8333C37.5 11.6286 30.0381 4.16666 20.8334 4.16666C11.6286 4.16666 4.16669 11.6286 4.16669 20.8333C4.16669 30.0381 11.6286 37.5 20.8334 37.5Z" fill="#66757F"/>
<path d="M22.2222 34.7222C28.9764 32.593 27.7777 27.7778 27.7777 22.2222C27.7777 16.6667 33.3347 12.9055 28.2416 8.68054C25.218 6.17221 18.8666 5.3236 15.9152 6.4236C13.2027 7.43332 9.72219 9.49026 9.72219 13.6569C9.72219 17.8236 9.64164 17.7222 7.34997 21.4694C3.70414 27.4305 12.6736 37.7319 22.2222 34.7222Z" fill="#F5F8FA"/>
<path d="M18.0556 30.5556C21.1238 30.5556 23.6111 28.0683 23.6111 25C23.6111 21.9318 21.1238 19.4445 18.0556 19.4445C14.9873 19.4445 12.5 21.9318 12.5 25C12.5 28.0683 14.9873 30.5556 18.0556 30.5556Z" fill="#FFAC33"/>
</g>
<defs>
<clipPath id="clip0_205_216">
<rect width="50" height="50" fill="white"/>
</clipPath>
</defs>
</svg>
