<svg width="32" height="32" viewBox="0 0 32 32" fill="none" xmlns="http://www.w3.org/2000/svg">
<g clip-path="url(#clip0_205_4)">
<path d="M32 4.99998C32 2.23857 29.7614 0 27 0H9C6.23858 0 4 2.23857 4 4.99998V12.5121C4.63682 12.287 5.30654 12.1315 6 12.0549V7.99996H30V22.9999C30 24.6567 28.6568 25.9999 27 25.9999H16.2426L18.2426 27.9999H27C29.7614 27.9999 32 25.7613 32 22.9999V4.99998ZM9 1.99999H27C28.6568 1.99999 30 3.34312 30 4.99998V5.99997H6V4.99998C6 3.34312 7.34314 1.99999 9 1.99999ZM11.1922 26.6063C10.0236 27.4815 8.57234 27.9999 7 27.9999C3.134 27.9999 0 24.8659 0 20.9999C0 17.1339 3.134 13.9999 7 13.9999C10.866 13.9999 14 17.1339 14 20.9999C14 22.5723 13.4816 24.0235 12.6064 25.1921L17.7071 30.2929C18.0976 30.6835 18.0976 31.3167 17.7071 31.7071C17.3166 32.0976 16.6834 32.0976 16.2929 31.7071L11.1922 26.6063ZM12 20.9999C12 18.2385 9.76142 15.9999 7 15.9999C4.23858 15.9999 2 18.2385 2 20.9999C2 23.7613 4.23858 25.9999 7 25.9999C9.76142 25.9999 12 23.7613 12 20.9999Z" fill="white"/>
</g>
<defs>
<clipPath id="clip0_205_4">
<rect width="32" height="32" fill="white"/>
</clipPath>
</defs>
</svg>
