<svg width="55" height="57" viewBox="0 0 55 57" fill="none" xmlns="http://www.w3.org/2000/svg">
<rect y="0.260269" width="55" height="56" rx="27.5" fill="white"/>
<rect x="5.5" y="5.86028" width="44" height="44.8" rx="22" fill="black"/>
<path d="M27.4981 19.6307C25.2498 19.6307 23.0935 20.5401 21.5037 22.1588C19.9139 23.7775 19.0208 25.9729 19.0208 28.2621C19.0208 30.5514 19.9139 32.7468 21.5037 34.3655C23.0935 35.9842 25.2498 36.8936 27.4981 36.8936C29.7464 36.8936 31.9027 35.9842 33.4925 34.3655C35.0823 32.7468 35.9754 30.5514 35.9754 28.2621C35.9754 25.9729 35.0823 23.7775 33.4925 22.1588C31.9027 20.5401 29.7464 19.6307 27.4981 19.6307ZM27.4981 33.8677C26.0374 33.8677 24.6366 33.277 23.6038 32.2254C22.571 31.1737 21.9908 29.7475 21.9908 28.2603C21.9908 26.7731 22.571 25.3468 23.6038 24.2952C24.6366 23.2436 26.0374 22.6528 27.4981 22.6528C28.9587 22.6528 30.3595 23.2436 31.3924 24.2952C32.4252 25.3468 33.0054 26.7731 33.0054 28.2603C33.0054 29.7475 32.4252 31.1737 31.3924 32.2254C30.3595 33.277 28.9587 33.8677 27.4981 33.8677Z" fill="white"/>
<path d="M36.3111 21.3256C37.4025 21.3256 38.2874 20.4247 38.2874 19.3133C38.2874 18.202 37.4025 17.3011 36.3111 17.3011C35.2196 17.3011 34.3347 18.202 34.3347 19.3133C34.3347 20.4247 35.2196 21.3256 36.3111 21.3256Z" fill="white"/>
<path d="M43.1438 17.2675C42.7194 16.1515 42.0708 15.1381 41.2396 14.2921C40.4084 13.4461 39.4128 12.7861 38.3167 12.3544C37.0339 11.8641 35.6788 11.599 34.309 11.5704C32.5435 11.492 31.9843 11.4696 27.5073 11.4696C23.0303 11.4696 22.4565 11.4696 20.7057 11.5704C19.3369 11.5976 17.9827 11.8627 16.7017 12.3544C15.6052 12.7856 14.6094 13.4454 13.7781 14.2915C12.9468 15.1376 12.2984 16.1512 11.8745 17.2675C11.3929 18.5734 11.1331 19.9533 11.1063 21.348C11.0275 23.1437 11.0037 23.7131 11.0037 28.2733C11.0037 32.8317 11.0037 33.4123 11.1063 35.1987C11.1338 36.5949 11.3923 37.9725 11.8745 39.2811C12.2996 40.3969 12.9486 41.4102 13.7801 42.2561C14.6116 43.1021 15.6073 43.7621 16.7035 44.1941C17.9821 44.7041 19.3368 44.9882 20.7093 45.0341C22.4748 45.1125 23.034 45.1368 27.511 45.1368C31.988 45.1368 32.5618 45.1368 34.3127 45.0341C35.6824 45.0058 37.0374 44.7413 38.3203 44.252C39.4162 43.8193 40.4115 43.1587 41.2426 42.3125C42.0737 41.4662 42.7225 40.4529 43.1475 39.3371C43.6297 38.0304 43.8882 36.6528 43.9157 35.2565C43.9945 33.4608 44.0183 32.8915 44.0183 28.3312C44.0183 23.7709 44.0183 23.1923 43.9157 21.4059C43.8943 19.9914 43.6332 18.5914 43.1438 17.2675ZM40.9108 35.0605C40.899 36.1363 40.7062 37.202 40.3407 38.2115C40.0653 38.9374 39.6439 39.5965 39.1033 40.1466C38.5627 40.6967 37.9151 41.1254 37.202 41.4053C36.2216 41.7758 35.186 41.9721 34.1403 41.9859C32.3987 42.068 31.9073 42.0885 27.4413 42.0885C22.9717 42.0885 22.5152 42.0885 20.7405 41.9859C19.6954 41.9728 18.6603 41.7765 17.6807 41.4053C16.9651 41.1272 16.3148 40.6992 15.772 40.149C15.2291 39.5988 14.8057 38.9387 14.5292 38.2115C14.1688 37.2129 13.9761 36.1597 13.959 35.096C13.8802 33.3227 13.8618 32.8224 13.8618 28.2752C13.8618 23.7261 13.8618 23.2613 13.959 21.4525C13.9708 20.3774 14.1637 19.3123 14.5292 18.3035C15.0883 16.8307 16.2342 15.6715 17.6807 15.1077C18.6607 14.7384 19.6955 14.5421 20.7405 14.5272C22.484 14.4469 22.9735 14.4245 27.4413 14.4245C31.9092 14.4245 32.3675 14.4245 34.1403 14.5272C35.1861 14.54 36.2218 14.7364 37.202 15.1077C37.915 15.3882 38.5626 15.8174 39.1031 16.3678C39.6436 16.9181 40.0652 17.5775 40.3407 18.3035C40.701 19.302 40.8938 20.3552 40.9108 21.4189C40.9897 23.1941 41.0098 23.6925 41.0098 28.2416C41.0098 32.7888 41.0098 33.2779 40.931 35.0624H40.9108V35.0605Z" fill="white"/>
</svg>
