<svg width="32" height="32" viewBox="0 0 32 32" fill="none" xmlns="http://www.w3.org/2000/svg">
<path d="M2.28571 5.2V8H9.33894C9.64204 8 9.93274 7.87357 10.1471 7.64853L12.4789 5.2L10.1471 2.75147C9.93274 2.52643 9.64204 2.4 9.33894 2.4H4.95238C3.47962 2.4 2.28571 3.6536 2.28571 5.2ZM0 5.2C0 2.32811 2.21725 0 4.95238 0H9.33894C10.2483 0 11.1203 0.37928 11.7633 1.05442L14.5687 4H25.5238C28.2589 4 30.4762 6.32811 30.4762 9.2V15.6954C29.7992 15.0131 29.0301 14.431 28.1905 13.9715V9.2C28.1905 7.6536 26.9966 6.4 25.5238 6.4H14.5687L11.7633 9.34558C11.1203 10.0207 10.2483 10.4 9.33894 10.4H2.28571V23.6C2.28571 25.1464 3.47962 26.4 4.95238 26.4H14.192C14.4546 27.2536 14.8195 28.0589 15.2713 28.8H4.95238C2.21725 28.8 0 26.4718 0 23.6V5.2ZM32 23.2C32 28.0602 28.2478 32 23.619 32C18.9903 32 15.2381 28.0602 15.2381 23.2C15.2381 18.3398 18.9903 14.4 23.619 14.4C28.2478 14.4 32 18.3398 32 23.2ZM22.8571 28C22.8571 28.4418 23.1983 28.8 23.619 28.8C24.0398 28.8 24.381 28.4418 24.381 28V20.3314L26.8898 22.9658C27.1874 23.2781 27.6698 23.2781 27.9674 22.9658C28.2648 22.6533 28.2648 22.1467 27.9674 21.8342L24.1579 17.8342C23.8603 17.5219 23.3778 17.5219 23.0802 17.8342L19.2707 21.8342C18.9733 22.1467 18.9733 22.6533 19.2707 22.9658C19.5683 23.2781 20.0507 23.2781 20.3483 22.9658L22.8571 20.3314V28Z" fill="white"/>
</svg>
