<svg width="66" height="67" viewBox="0 0 66 67" fill="none" xmlns="http://www.w3.org/2000/svg">
<rect y="0.260269" width="66" height="66" rx="33" fill="white"/>
<rect x="7.33325" y="7.59361" width="51.3333" height="51.3333" rx="25.6667" fill="black"/>
<path d="M21 23.2603C23.2091 23.2603 25 21.4694 25 19.2603C25 17.0511 23.2091 15.2603 21 15.2603C18.7909 15.2603 17 17.0511 17 19.2603C17 21.4694 18.7909 23.2603 21 23.2603Z" fill="white"/>
<path d="M28.634 25.7667V46.2586H35.1595V36.1249C35.1595 33.4509 35.6755 30.8614 39.0758 30.8614C42.4295 30.8614 42.471 33.9185 42.471 36.2937V46.2603H49V35.0226C49 29.5025 47.7811 25.2603 41.1639 25.2603C37.9868 25.2603 35.8572 26.9602 34.9864 28.569H34.8981V25.7667H28.634ZM18 25.7667H24.5359V46.2586H18V25.7667Z" fill="white"/>
</svg>
