<svg width="50" height="50" viewBox="0 0 50 50" fill="none" xmlns="http://www.w3.org/2000/svg">
<g clip-path="url(#clip0_205_250)">
<path d="M0.201416 30.0315L22.0902 49.9546L38.6061 36.0854L49.7986 26.2986L28.293 7.32709" fill="#C9C9C9"/>
<path d="M0.201416 30.0315L22.1443 49.1565L37.4426 35.9343L49.1867 19.4065L28.0164 0.0454102L17.354 14.9204L0.201416 30.0315Z" fill="#FFF3D9"/>
<path d="M2.2041 29.59L22.353 47.1496L36.4011 35.0088L47.1855 19.8315L27.7444 2.05237L17.9551 15.7138L2.2041 29.59Z" fill="#68E1FD"/>
<path opacity="0.1" d="M27.7444 2.05237L17.9551 15.7138L36.401 35.0088L47.1855 19.8315L27.7444 2.05237Z" fill="black"/>
<path d="M43.6267 16.5779L40.2364 20.8657L31.4793 17.5861L16.5752 32.3124L15.4286 41.1146L13.1941 39.169L14.8027 30.5533L30.9029 13.7588L39.5457 17.3476L41.3552 14.5001" fill="#F9EFD7"/>
<path d="M42.817 15.8365L42.5126 16.2002" stroke="#F7931E" stroke-width="3" stroke-miterlimit="10" stroke-linecap="round"/>
<path d="M41.655 17.2249L40.615 18.4668" stroke="#F7931E" stroke-width="3" stroke-miterlimit="10" stroke-linecap="round" stroke-dasharray="5.03 7.04"/>
<path d="M40.1854 18.9792L39.8826 19.3428L39.5117 19.1728" stroke="#F7931E" stroke-width="3" stroke-miterlimit="10" stroke-linecap="round"/>
<path d="M38.515 18.7147L32.1732 15.8035" stroke="#F7931E" stroke-width="3" stroke-miterlimit="10" stroke-linecap="round" stroke-dasharray="4.81 6.74"/>
<path d="M31.674 15.5744L31.3047 15.4044L30.9879 15.7445" stroke="#F7931E" stroke-width="3" stroke-miterlimit="10" stroke-linecap="round"/>
<path d="M30.0515 16.7456L24.0991 23.1111" stroke="#F7931E" stroke-width="3" stroke-miterlimit="10" stroke-linecap="round" stroke-dasharray="5.28 7.4"/>
<path d="M23.6309 23.6117L23.3141 23.9493" stroke="#F7931E" stroke-width="3" stroke-miterlimit="10" stroke-linecap="round"/>
<path d="M23.0468 25.8972C24.4464 25.8972 25.581 25.116 25.581 24.1524C25.581 23.1887 24.4464 22.4075 23.0468 22.4075C21.6471 22.4075 20.5125 23.1887 20.5125 24.1524C20.5125 25.116 21.6471 25.8972 23.0468 25.8972Z" stroke="#39B54A" stroke-width="2" stroke-miterlimit="10"/>
<path d="M27.4724 10.6751C27.4724 10.6043 27.4693 10.5343 27.4632 10.465C27.3411 8.17708 26.3428 6.18666 24.9984 5.22097C24.4508 4.83215 23.8531 4.63532 23.2493 4.64486C22.6454 4.65441 22.0506 4.87008 21.5083 5.27612C20.966 5.68216 20.4899 6.26829 20.115 6.99163C19.74 7.71497 19.4757 8.55723 19.3412 9.4568C19.0321 11.6267 19.5343 13.8249 20.0582 15.82C20.8703 18.9319 21.9218 21.8851 23.1905 24.6175C23.8702 23.1819 24.5005 21.6932 25.0788 20.1574C26.1852 17.2768 27.6038 14.1625 27.4724 10.6751Z" fill="#E55151"/>
<path d="M23.3187 14.8307C24.68 14.8307 25.7835 13.1446 25.7835 11.0647C25.7835 8.98482 24.68 7.29874 23.3187 7.29874C21.9575 7.29874 20.854 8.98482 20.854 11.0647C20.854 13.1446 21.9575 14.8307 23.3187 14.8307Z" fill="white"/>
<path d="M28.7349 20.2967L30.903 30.1118H39.881L39.0079 31.3396H30.3837L27.9948 21.0286" fill="#F9EFD7"/>
<path d="M27.7444 2.05237L30.903 13.7588L32.0449 14.2333L29.0007 3.20223L27.7444 2.05237Z" fill="#F9EFD7"/>
<path d="M10.4775 22.1006L16.9738 28.6408L17.7913 27.4367L11.2146 21.3049" fill="#F9EFD7"/>
<path d="M5.54652 32.3195C5.48935 32.4611 13.4274 25.085 13.4274 25.085L19.9176 18.6132L19.3536 13.7658L19.0136 14.2381L19.5359 18.3936L5.02267 32.0456" fill="#F9EFD7"/>
<path d="M8.44856 27.6988C9.17397 27.6988 9.76204 27.2875 9.76204 26.7803C9.76204 26.273 9.17397 25.8618 8.44856 25.8618C7.72314 25.8618 7.13507 26.273 7.13507 26.7803C7.13507 27.2875 7.72314 27.6988 8.44856 27.6988Z" fill="#B3B3B3"/>
<path d="M16.5752 32.3195C16.5752 32.3195 24.8656 29.989 27.083 35.4975C29.3005 41.006 27.7398 42.4982 27.7398 42.4982L29.1506 41.2775C29.1506 41.2775 29.2248 34.7349 25.0896 32.0527C20.9545 29.3704 17.3633 30.9335 17.3633 30.9335" fill="#F9EFD7"/>
<path opacity="0.28" d="M17.7079 43.1026C17.7959 43.0365 20.2715 41.7001 20.2715 41.7001L20.735 42.9704L19.23 44.4367L17.7079 43.1026Z" fill="url(#paint0_linear_205_250)"/>
<path opacity="0.28" d="M21.4706 44.2927C21.5587 44.2265 24.8702 42.3754 24.8702 42.3754L25.2426 42.9681L22.8598 45.6668L21.4706 44.2927Z" fill="url(#paint1_linear_205_250)"/>
<path opacity="0.28" d="M19.128 40.182C19.2686 40.0757 22.8613 38.1325 22.8613 38.1325L23.3095 39.254L20.5697 42.3754L19.128 40.182Z" fill="url(#paint2_linear_205_250)"/>
<path d="M23.124 31.5733H22.9726C22.801 31.5733 22.662 31.7858 22.662 32.0479V38.9306C22.662 39.1927 22.801 39.4051 22.9726 39.4051H23.124C23.2956 39.4051 23.4346 39.1927 23.4346 38.9306V32.0479C23.4346 31.7858 23.2956 31.5733 23.124 31.5733Z" fill="#BC532A"/>
<path d="M24.9567 33.1765C24.779 31.996 23.9863 26.7874 22.5832 28.3174C21.8646 29.1012 21.656 30.3267 21.3733 31.5261C21.1121 32.515 20.9612 33.5636 20.9267 34.6286C20.9035 36.7961 22.3468 37.0605 23.4501 37.0535C24.0868 37.0535 24.9954 36.475 25.1499 35.4196C25.2395 34.7821 25.0865 34.0312 24.9954 33.4079L24.9567 33.1765Z" fill="#2C9135"/>
<path d="M25.0247 33.4056L24.9907 33.1695C24.8362 32.1235 24.1949 27.9325 23.0792 28.034C23.4099 30.244 23.8998 32.5792 23.6386 34.8411C23.5552 35.6306 23.3532 36.3798 23.0483 37.0299C23.2028 37.0299 23.3435 37.044 23.4841 37.044C24.1207 37.044 25.0294 36.4656 25.1839 35.4101C25.2658 34.7821 25.1128 34.0289 25.0247 33.4056Z" fill="#156819"/>
<path d="M24.9799 37.6839H24.9784C24.8299 37.6839 24.7095 37.8678 24.7095 38.0947V42.7343C24.7095 42.9612 24.8299 43.1452 24.9784 43.1452H24.9799C25.1284 43.1452 25.2488 42.9612 25.2488 42.7343V38.0947C25.2488 37.8678 25.1284 37.6839 24.9799 37.6839Z" fill="#BC532A"/>
<path d="M26.3104 38.8007C26.1852 37.9767 25.6336 34.3453 24.6554 35.4125C24.1547 35.9603 24.0126 36.8126 23.8117 37.6485C23.6304 38.338 23.526 39.069 23.5026 39.8113C23.4872 41.3224 24.4931 41.5065 25.2627 41.5018C25.7062 41.5018 26.3444 41.0981 26.4433 40.3614C26.5051 39.9175 26.4 39.3933 26.3367 38.9589L26.3104 38.8007Z" fill="#2C9135"/>
<path d="M26.3568 38.9613L26.3336 38.8007C26.2239 38.0711 25.7788 35.1481 25.0016 35.2213C25.2333 36.7631 25.5733 38.3899 25.391 39.9671C25.3331 40.518 25.1924 41.0409 24.9799 41.4947H25.289C25.7325 41.4947 26.3707 41.091 26.4696 40.3543C26.5252 39.9199 26.4186 39.4028 26.3568 38.9613Z" fill="#156819"/>
<path d="M20.4986 35.6581H20.3812C20.2096 35.6581 20.0706 35.8705 20.0706 36.1326V42.6705C20.0706 42.9327 20.2096 43.1451 20.3812 43.1451H20.4986C20.6702 43.1451 20.8092 42.9327 20.8092 42.6705V36.1326C20.8092 35.8705 20.6702 35.6581 20.4986 35.6581Z" fill="#BC532A"/>
<path d="M22.2664 37.1904C22.0964 36.0618 21.3392 31.0822 19.9979 32.5461C19.3103 33.2946 19.1156 34.4681 18.8421 35.6156C18.5921 36.5606 18.4474 37.563 18.414 38.5811C18.3924 40.6518 19.7708 40.9068 20.8262 40.8974C21.4351 40.8974 22.302 40.3449 22.4441 39.3343C22.5291 38.7251 22.3839 38.0074 22.2989 37.4124L22.2664 37.1904Z" fill="#2C9135"/>
<path d="M22.3298 37.41L22.2973 37.1904C22.1428 36.1917 21.537 32.1825 20.4708 32.2817C20.7876 34.3948 21.2543 36.6261 21.0055 38.7889C20.926 39.5443 20.733 40.2612 20.4414 40.8832C20.5836 40.8832 20.7227 40.8973 20.8571 40.8973C21.466 40.8973 22.3329 40.3449 22.475 39.3343C22.5616 38.7228 22.4148 38.005 22.3298 37.41Z" fill="#156819"/>
<path opacity="0.28" d="M33.8838 26.9078C32.8948 27.4603 31.4577 28.2654 31.399 28.3103L32.7897 29.6844L34.3937 27.8687C34.1806 27.6081 34.0066 27.2803 33.8838 26.9078Z" fill="url(#paint3_linear_205_250)"/>
<path d="M34.3798 27.9537L34.3984 27.923V18.2425H33.5701V27.9372C33.6874 28.0675 33.8282 28.1391 33.9732 28.142C34.1182 28.145 34.2603 28.0792 34.3798 27.9537Z" fill="#D3894C"/>
<path d="M33.9842 21.5622L32.6136 22.8372L32.1345 22.4122L32.3308 21.4678L33.6582 20.2896L33.9842 21.5622Z" fill="#D3894C"/>
<path d="M33.6582 20.5304L32.4544 21.6283L32.2396 22.5067L32.6136 22.8372L33.6366 21.8857L33.6582 20.5304Z" fill="#C66B28"/>
<path d="M34.0739 19.4467L35.2174 18.5235L35.7397 19.0169L35.2174 19.8457L34.4231 20.1172" fill="#D3894C"/>
<path d="M34.3798 27.9537L34.3984 27.923V18.2425H34.0275V28.1379C34.1537 28.1264 34.2754 28.0627 34.3798 27.9537Z" fill="#C66B28"/>
<path d="M34.0275 19.789L35.4553 18.6982L35.7397 19.0169L35.6315 19.6804L34.2454 20.8775" fill="#C66B28"/>
<path d="M33.9842 18.5683C34.213 18.5683 34.3984 18.4246 34.3984 18.2472C34.3984 18.0699 34.213 17.9261 33.9842 17.9261C33.7555 17.9261 33.5701 18.0699 33.5701 18.2472C33.5701 18.4246 33.7555 18.5683 33.9842 18.5683Z" fill="#EAA068"/>
<path opacity="0.28" d="M4.89133 28.3056C4.97941 28.2394 8.29093 26.3883 8.29093 26.3883L8.66334 26.981L6.28516 29.6844L4.89133 28.3056Z" fill="url(#paint4_linear_205_250)"/>
<path d="M8.68806 26.9574L8.69888 26.9267V17.2461H8.19821V26.9408C8.22456 27.0027 8.26038 27.0537 8.30256 27.0896C8.34474 27.1255 8.39202 27.1451 8.44028 27.1467C8.48855 27.1483 8.53634 27.1319 8.57952 27.0989C8.6227 27.0659 8.65996 27.0173 8.68806 26.9574Z" fill="#E6E6E6"/>
<path d="M8.68807 26.9574L8.69889 26.9267V17.2461H8.47482V27.1415C8.55856 27.1234 8.63473 27.0577 8.68807 26.9574Z" fill="#B3B3B3"/>
<path d="M8.44855 17.5719C8.5868 17.5719 8.69888 17.4282 8.69888 17.2508C8.69888 17.0735 8.5868 16.9297 8.44855 16.9297C8.31029 16.9297 8.19821 17.0735 8.19821 17.2508C8.19821 17.4282 8.31029 17.5719 8.44855 17.5719Z" fill="#DDDAA5"/>
<path d="M9.90491 18.0323C10.115 16.669 9.65025 15.3355 8.86689 15.0536C8.08353 14.7718 7.27818 15.6484 7.0681 17.0116C6.85802 18.3748 7.32275 19.7084 8.10612 19.9903C8.88948 20.2721 9.69483 19.3955 9.90491 18.0323Z" fill="#CA4050"/>
<path d="M9.70311 17.9764C9.87681 16.8493 9.49235 15.7466 8.84439 15.5135C8.19644 15.2803 7.53035 16.0051 7.35665 17.1322C7.18296 18.2593 7.56742 19.3621 8.21537 19.5952C8.86333 19.8283 9.52941 19.1036 9.70311 17.9764Z" fill="white"/>
<path d="M9.21036 15.6051L7.77789 19.2578C7.77789 19.2578 8.00041 20.155 8.11013 19.7607C8.21984 19.3664 9.5596 15.9971 9.5596 15.9971L9.21036 15.6051Z" fill="#CA4050"/>
<path opacity="0.28" d="M13.7906 21.3049C12.8016 21.8574 11.3645 22.6625 11.3058 22.7074L12.5682 23.9517L14.0764 21.9376C13.8632 21.6756 13.9142 21.6779 13.7906 21.3049Z" fill="url(#paint5_linear_205_250)"/>
<path opacity="0.28" d="M16.4515 24.2539C15.4626 24.8064 14.0255 25.6115 13.9667 25.6564L15.2292 26.9007L16.7374 24.8867C16.5226 24.6269 16.5752 24.6269 16.4515 24.2539Z" fill="url(#paint6_linear_205_250)"/>
<path opacity="0.28" d="M16.2028 19.3003C15.2138 19.8528 13.7767 20.6579 13.718 20.7028L14.9804 21.9471L16.4886 19.9331C16.2738 19.6733 16.3264 19.6733 16.2028 19.3003Z" fill="url(#paint7_linear_205_250)"/>
<path d="M16.827 23.0002C16.827 22.7563 16.6977 22.5586 16.5381 22.5586C16.3785 22.5586 16.2491 22.7563 16.2491 23.0002V24.634C16.2491 24.8779 16.3785 25.0756 16.5381 25.0756C16.6977 25.0756 16.827 24.8779 16.827 24.634V23.0002Z" fill="#BC532A"/>
<path d="M16.5381 24.2539C17.1508 24.2539 17.6476 23.4949 17.6476 22.5586C17.6476 21.6223 17.1508 20.8633 16.5381 20.8633C15.9253 20.8633 15.4286 21.6223 15.4286 22.5586C15.4286 23.4949 15.9253 24.2539 16.5381 24.2539Z" fill="#9CD861"/>
<path d="M16.5381 20.8633C16.4754 20.8639 16.4128 20.8726 16.3511 20.8893C16.5754 21.0823 16.757 21.3727 16.8731 21.7237C16.9892 22.0747 17.0345 22.4705 17.0032 22.8608C16.9779 23.1631 16.899 23.4491 16.7751 23.688C16.6512 23.9268 16.4869 24.1094 16.3001 24.2161C16.4525 24.2677 16.6102 24.2696 16.7631 24.2217C16.9159 24.1738 17.0604 24.0771 17.1872 23.9381C17.3139 23.799 17.4201 23.6207 17.4986 23.4147C17.5772 23.2087 17.6265 22.9798 17.6432 22.7427C17.6599 22.5057 17.6437 22.2659 17.5957 22.0391C17.5477 21.8122 17.4689 21.6034 17.3644 21.4263C17.26 21.2491 17.1323 21.1077 16.9896 21.0111C16.847 20.9145 16.6926 20.8649 16.5365 20.8657L16.5381 20.8633Z" fill="#54BA56"/>
<path d="M13.7875 19.05H13.6438C13.4842 19.05 13.3548 19.2477 13.3548 19.4915V21.7558C13.3548 21.9997 13.4842 22.1973 13.6438 22.1973H13.7875C13.9471 22.1973 14.0764 21.9997 14.0764 21.7558V19.4915C14.0764 19.2477 13.9471 19.05 13.7875 19.05Z" fill="#BC532A"/>
<path d="M13.7149 21.1703C14.4812 21.1703 15.1025 20.221 15.1025 19.05C15.1025 17.879 14.4812 16.9297 13.7149 16.9297C12.9485 16.9297 12.3272 17.879 12.3272 19.05C12.3272 20.221 12.9485 21.1703 13.7149 21.1703Z" fill="#9CD861"/>
<path d="M13.7195 16.9297C13.6412 16.9307 13.5632 16.9417 13.4861 16.9628C13.7667 17.2039 13.9941 17.5669 14.1393 18.0058C14.2846 18.4447 14.3412 18.9396 14.3021 19.4278C14.2702 19.8055 14.1715 20.1628 14.0166 20.4612C13.8616 20.7595 13.6563 20.9875 13.4228 21.1207C13.6149 21.1911 13.8147 21.1981 14.0087 21.1414C14.2028 21.0846 14.3867 20.9653 14.5482 20.7914C14.7097 20.6175 14.8452 20.393 14.9454 20.1329C15.0457 19.8728 15.1086 19.583 15.1298 19.2828C15.1511 18.9827 15.1302 18.679 15.0687 18.3922C15.0071 18.1053 14.9062 17.8418 14.7728 17.6191C14.6394 17.3965 14.4764 17.2198 14.2948 17.101C14.1131 16.9821 13.917 16.9237 13.7195 16.9297Z" fill="#54BA56"/>
<path d="M16.5906 17.9639C16.5906 17.72 16.4612 17.5224 16.3016 17.5224C16.142 17.5224 16.0127 17.72 16.0127 17.9639V19.5978C16.0127 19.8416 16.142 20.0393 16.3016 20.0393C16.4612 20.0393 16.5906 19.8416 16.5906 19.5978V17.9639Z" fill="#BC532A"/>
<path d="M16.3001 19.2176C16.9129 19.2176 17.4096 18.4586 17.4096 17.5224C17.4096 16.5861 16.9129 15.8271 16.3001 15.8271C15.6873 15.8271 15.1906 16.5861 15.1906 17.5224C15.1906 18.4586 15.6873 19.2176 16.3001 19.2176Z" fill="#9CD861"/>
<path d="M16.3001 15.8271C16.2374 15.8277 16.1749 15.8364 16.1131 15.8531C16.3374 16.0461 16.5191 16.3365 16.6352 16.6875C16.7513 17.0385 16.7965 17.4342 16.7652 17.8246C16.7399 18.1269 16.661 18.4129 16.5371 18.6517C16.4132 18.8905 16.249 19.0732 16.0621 19.1799C16.2145 19.2314 16.3722 19.2333 16.5251 19.1854C16.6779 19.1375 16.8224 19.0409 16.9492 18.9018C17.0759 18.7628 17.1821 18.5844 17.2607 18.3785C17.3392 18.1725 17.3885 17.9435 17.4052 17.7065C17.422 17.4694 17.4058 17.2296 17.3577 17.0028C17.3097 16.776 17.2309 16.5672 17.1264 16.39C17.022 16.2129 16.8943 16.0714 16.7516 15.9748C16.609 15.8782 16.4546 15.8287 16.2986 15.8294L16.3001 15.8271Z" fill="#54BA56"/>
<path opacity="0.28" d="M22.764 23.3755C21.1105 24.3955 18.7076 25.8854 18.6103 25.9728L20.7196 28.2701L23.2415 24.5514C22.8845 24.0556 22.9695 24.0555 22.764 23.3755Z" fill="url(#paint8_linear_205_250)"/>
</g>
<defs>
<linearGradient id="paint0_linear_205_250" x1="18.601" y1="43.7874" x2="21.5996" y2="42.2335" gradientUnits="userSpaceOnUse">
<stop stop-opacity="0"/>
<stop offset="1"/>
</linearGradient>
<linearGradient id="paint1_linear_205_250" x1="23.0066" y1="44.2714" x2="26.5322" y2="42.9951" gradientUnits="userSpaceOnUse">
<stop stop-opacity="0"/>
<stop offset="1"/>
</linearGradient>
<linearGradient id="paint2_linear_205_250" x1="20.3441" y1="40.8076" x2="23.2446" y2="39.6141" gradientUnits="userSpaceOnUse">
<stop stop-opacity="0"/>
<stop offset="1"/>
</linearGradient>
<linearGradient id="paint3_linear_205_250" x1="32.1948" y1="28.9006" x2="35.8552" y2="27.3693" gradientUnits="userSpaceOnUse">
<stop stop-opacity="0"/>
<stop offset="1"/>
</linearGradient>
<linearGradient id="paint4_linear_205_250" x1="5.54034" y1="29.0493" x2="10.2885" y2="26.8092" gradientUnits="userSpaceOnUse">
<stop stop-opacity="0"/>
<stop offset="1"/>
</linearGradient>
<linearGradient id="paint5_linear_205_250" x1="12.0521" y1="23.215" x2="15.6073" y2="21.7273" gradientUnits="userSpaceOnUse">
<stop stop-opacity="0"/>
<stop offset="1"/>
</linearGradient>
<linearGradient id="paint6_linear_205_250" x1="14.7131" y1="26.1664" x2="18.2683" y2="24.6787" gradientUnits="userSpaceOnUse">
<stop stop-opacity="0"/>
<stop offset="1"/>
</linearGradient>
<linearGradient id="paint7_linear_205_250" x1="14.4643" y1="21.2128" x2="18.0195" y2="19.7251" gradientUnits="userSpaceOnUse">
<stop stop-opacity="0"/>
<stop offset="1"/>
</linearGradient>
<linearGradient id="paint8_linear_205_250" x1="19.8975" y1="26.8865" x2="25.9185" y2="24.367" gradientUnits="userSpaceOnUse">
<stop stop-opacity="0"/>
<stop offset="1"/>
</linearGradient>
<clipPath id="clip0_205_250">
<rect width="50" height="50" fill="white"/>
</clipPath>
</defs>
</svg>
