<svg width="22" height="14" viewBox="0 0 22 14" fill="none" xmlns="http://www.w3.org/2000/svg">
<path d="M12.455 3.75C12.455 3.15169 12.9723 2.66667 13.6106 2.66667H14.7661C15.4043 2.66667 15.9217 3.15169 15.9217 3.75V12.4167C15.9217 13.015 15.4043 13.5 14.7661 13.5H13.6106C12.9723 13.5 12.455 13.015 12.455 12.4167V3.75Z" fill="black"/>
<path d="M18.2329 1.58333C18.2329 0.985025 18.7502 0.5 19.3884 0.5H20.544C21.1822 0.5 21.6996 0.985025 21.6996 1.58333V12.4167C21.6996 13.015 21.1822 13.5 20.544 13.5H19.3884C18.7502 13.5 18.2329 13.015 18.2329 12.4167V1.58333Z" fill="black"/>
<path d="M6.67709 7.54167C6.67709 6.94336 7.19446 6.45833 7.83267 6.45833H8.98824C9.62645 6.45833 10.1438 6.94336 10.1438 7.54167V12.4167C10.1438 13.015 9.62645 13.5 8.98824 13.5H7.83267C7.19446 13.5 6.67709 13.015 6.67709 12.4167V7.54167Z" fill="black"/>
<path d="M0.8992 10.25C0.8992 9.65169 1.41657 9.16667 2.05478 9.16667H3.21036C3.84856 9.16667 4.36593 9.65169 4.36593 10.25V12.4167C4.36593 13.015 3.84856 13.5 3.21036 13.5H2.05478C1.41657 13.5 0.8992 13.015 0.8992 12.4167V10.25Z" fill="black"/>
</svg>
