<svg width="50" height="50" viewBox="0 0 50 50" fill="none" xmlns="http://www.w3.org/2000/svg">
<path d="M24.5313 24.5312L24.1406 19.6094L21.4844 19.8437L21.875 24.1406L14.5312 27.5781L17.5 29.9219C17.5 29.9219 19.6094 29.0625 19.4531 28.3594L23.9063 25.9375C24.4531 25.7031 24.6875 25.0781 24.5313 24.5312Z" fill="#231F20"/>
<path d="M44.5313 27.5L31.875 35.4688L32.5781 36.4062L45.7812 30.0781C45.7812 29.1406 45.3906 28.125 44.5313 27.5Z" fill="#E6E6E6"/>
<path d="M31.3281 34.9219L35.0781 33.125C35.0781 33.125 36.7969 34.6094 34.9219 36.3281L31.3281 34.9219ZM8.90625 33.75C4.84375 33.75 1.5625 37.0312 1.5625 41.0937C1.5625 45.1562 4.84375 48.4375 8.90625 48.4375C12.9687 48.4375 16.25 45.1562 16.25 41.0937C16.25 37.0312 12.9687 33.75 8.90625 33.75ZM8.90625 46.25C6.09375 46.25 3.75 43.9844 3.75 41.0937C3.75 38.2812 6.01562 35.9375 8.90625 35.9375C11.7187 35.9375 14.0625 38.2031 14.0625 41.0937C13.9844 43.9844 11.7187 46.25 8.90625 46.25Z" fill="#3E4347"/>
<path d="M14.375 40.7813L11.0156 40.5469L13.8281 38.6719L13.4375 38.0469L10.4688 39.5312L11.875 36.4844L11.3281 36.1719L9.45313 38.9063L9.21875 35.625H8.51562L8.28125 38.9063L6.48438 36.1719L5.85938 36.5625L7.26563 39.5312L4.29687 38.125L3.98437 38.6719L6.71875 40.5469L3.35938 40.7813V41.4844L6.71875 41.7188L3.98437 43.5156L4.29687 44.1406L7.26563 42.7344L5.85938 45.7031L6.48438 46.0156L8.28125 43.2813L8.59375 46.6406H9.21875L9.45313 43.2813L11.3281 46.0156L11.9531 45.7031L10.4688 42.7344L13.4375 44.1406L13.8281 43.5156L11.0938 41.7188L14.375 41.4844V40.7813Z" fill="#3E4347"/>
<path d="M8.90625 37.4219C6.875 37.4219 5.23438 39.0625 5.23438 41.0937C5.23438 43.125 6.875 44.7656 8.90625 44.7656C10.9375 44.7656 12.5781 43.125 12.5781 41.0937C12.5781 39.0625 10.9375 37.4219 8.90625 37.4219ZM8.90625 43.2812C7.65625 43.2812 6.71875 42.2656 6.71875 41.0937C6.71875 39.9219 7.73437 38.9062 8.90625 38.9062C10.1562 38.9062 11.0938 39.9219 11.0938 41.0937C11.0938 42.2656 10.0781 43.2812 8.90625 43.2812Z" fill="#E6E6E6"/>
<path d="M27.9688 32.8906V37.8125L40.7813 43.2031L42.1875 39.2969L27.9688 32.8906Z" fill="#94989B"/>
<path d="M41.0937 33.75C37.0312 33.75 33.75 37.0312 33.75 41.0937C33.75 45.1562 37.0312 48.4375 41.0937 48.4375C45.1562 48.4375 48.4375 45.1562 48.4375 41.0937C48.4375 37.0312 45.1562 33.75 41.0937 33.75ZM41.0937 46.25C38.2812 46.25 35.9375 43.9844 35.9375 41.0937C35.9375 38.2812 38.2031 35.9375 41.0937 35.9375C43.9062 35.9375 46.25 38.2031 46.25 41.0937C46.25 43.9844 43.9062 46.25 41.0937 46.25Z" fill="#3E4347"/>
<path d="M10.8594 27.8906V30.0781L22.2656 31.7187C18.2813 27.8906 10.8594 27.8906 10.8594 27.8906Z" fill="#94989B"/>
<path d="M22.1875 31.4844L39.6875 25.7812L40.3906 29.9219L25.0781 37.4219L22.1875 31.4844Z" fill="#3E4347"/>
<path d="M21.6406 31.875L21.7969 29.7656C21.7969 29.375 22.1875 29.0625 22.5781 28.9063C23.75 28.5156 27.1875 27.1875 27.1875 27.1875L29.375 29.9219L21.6406 31.875Z" fill="#ED4C5C"/>
<path d="M8.90625 41.6406L15.3906 32.3438L13.4375 30.8594L8.4375 41.0937L8.90625 41.6406Z" fill="#3E4347"/>
<path d="M15.1562 36.0938C13.6719 34.2188 11.4062 33.0469 8.90625 33.0469C6.95312 33.0469 5.15625 33.75 3.82812 34.8437L15.1562 36.0938Z" fill="#C94747"/>
<path d="M46.6406 40.7813L43.2813 40.5469L46.0156 38.6719L45.7031 38.0469L42.6562 39.5312L44.1406 36.4844L43.5156 36.1719L41.7188 38.9063L41.4844 35.625H40.7813L40.5469 38.9063L38.6719 36.1719L38.0469 36.5625L39.5312 39.5312L36.4844 38.125L36.1719 38.6719L38.9844 40.5469L35.625 40.7813V41.4844L38.9063 41.7188L36.1719 43.5156L36.5625 44.1406L39.5312 42.7344L38.0469 45.7031L38.6719 46.0156L40.5469 43.2813L40.7813 46.6406H41.4844L41.7188 43.2813L43.5938 46.0156L44.1406 45.7031L42.7344 42.7344L45.7031 44.1406L46.0156 43.5156L43.2813 41.7188L46.6406 41.4844V40.7813Z" fill="#3E4347"/>
<path d="M41.0937 37.4219C39.0625 37.4219 37.4219 39.0625 37.4219 41.0937C37.4219 43.125 39.0625 44.7656 41.0937 44.7656C43.125 44.7656 44.7656 43.125 44.7656 41.0937C44.7656 39.0625 43.125 37.4219 41.0937 37.4219ZM41.0937 43.2812C39.8437 43.2812 38.9062 42.2656 38.9062 41.0937C38.9062 39.9219 39.9219 38.9062 41.0937 38.9062C42.2656 38.9062 43.2812 39.9219 43.2812 41.0937C43.2812 42.2656 42.3437 43.2812 41.0937 43.2812Z" fill="#E6E6E6"/>
<path d="M35.0781 30C33.75 30.625 33.8281 31.875 33.8281 31.875C33.8281 31.875 37.8906 31.6406 43.0469 28.8281C45.5469 27.4219 45.5469 24.4531 45.5469 24.4531C36.6406 24.2969 39.2187 27.8906 35.0781 30ZM32.6562 37.2656C28.6719 37.2656 28.3594 33.75 24.6094 32.3438C19.9219 30.5469 13.0469 29.7656 11.7969 29.7656C10.4687 29.7656 11.4844 28.2812 11.7969 27.8906C14.4531 24.7656 17.8906 25.3125 17.8906 25.3125L16.7969 24.2969C13.5156 24.2969 10.625 25.9375 8.90624 28.4375C8.20311 29.4531 7.10936 30.8594 7.73436 31.25C9.29686 32.3437 14.0625 35.4688 14.0625 35.4688C14.0625 35.4688 15.9375 36.7187 16.25 37.3437C16.9531 38.5937 17.0312 43.5937 17.0312 43.5937C17.0312 44.1406 17.4219 44.6875 18.125 44.6094L32.5 42.6562C32.1094 41.6406 31.875 39.8437 32.6562 37.2656Z" fill="#ED4C5C"/>
<path d="M8.90626 30.4688H10.8594L10.2344 32.0312C10.2344 32.0312 7.42188 30.4688 8.90626 30.4688Z" fill="white"/>
<path d="M23.5156 37.5C22.0313 37.1094 20.5469 37.9688 20.1562 39.4531L26.5625 41.0938C27.2656 41.25 28.0469 40.8594 28.2031 40.1563L28.5156 38.8281L23.5156 37.5Z" fill="#666C70"/>
<path d="M37.5 22.1875L26.7188 26.7188L23.9844 37.5781L28.5156 38.75L31.1719 30C31.1719 30 35.5469 28.125 36.7187 27.1875C37.7344 26.3281 38.9844 24.375 37.5 22.1875Z" fill="#231F20"/>
<path d="M37.5 22.1875C37.5 22.1875 31.0937 15.3906 24.8437 15.5469L20.0781 19.2969L20.4688 23.5937L16.7188 25.625L17.9688 27.8906L22.5 25.4687C23.0469 25.1562 23.2031 24.6875 23.2031 23.9844C23.125 23.4375 23.0469 21.7969 23.0469 21.7969L28.2031 26.3281L37.5 22.1875Z" fill="#3E4347"/>
<path d="M17.5781 26.7188L17.1094 25.5469C16.9531 25.1563 16.4063 24.9219 16.0156 25.1563L15.4688 25.3906C15.0781 25.4688 14.8438 25.7813 14.8438 26.0938C14.0625 26.4844 13.2031 27.1875 13.8281 28.5938C13.9063 28.8281 14.4531 30.0781 16.0156 29.4531C18.2813 28.4375 18.2813 28.4375 17.5781 26.7188Z" fill="#666C70"/>
<path d="M29.1406 10.5469C29.1406 15.4688 27.7344 15.3125 20.1562 19.5312C17.6562 20.9375 14.1406 20.9375 12.5 15.1562C11.9531 13.2812 11.25 12.6563 11.25 10.625C11.25 5.54688 15.2344 1.5625 20.2344 1.5625C25.1563 1.5625 29.1406 5.54687 29.1406 10.5469Z" fill="#ED4C5C"/>
<path d="M22.2656 10.3125C22.8125 11.7969 16.4062 15.4687 12.5 16.875C11.5625 17.2656 9.60937 11.9531 10.5469 11.6406C14.4531 10.1562 21.7187 8.82812 22.2656 10.3125Z" fill="#3E4347"/>
<path d="M22.0312 11.6406C22.8942 11.6406 23.5938 10.9411 23.5938 10.0781C23.5938 9.21518 22.8942 8.51562 22.0312 8.51562C21.1683 8.51562 20.4688 9.21518 20.4688 10.0781C20.4688 10.9411 21.1683 11.6406 22.0312 11.6406Z" fill="#94989B"/>
</svg>
