<svg width="50" height="50" viewBox="0 0 50 50" fill="none" xmlns="http://www.w3.org/2000/svg">
<g clip-path="url(#clip0_205_331)">
<path d="M45.5201 2.88661C44.8252 4.55521 43.9257 6.13086 42.8424 7.57733C40.5231 5.17546 37.7461 3.26368 34.6757 1.95509C31.6052 0.646514 28.3038 -0.0322757 24.9667 -0.0411113C21.6296 -0.049947 18.3246 0.611351 15.2473 1.90365C12.17 3.19596 9.38291 5.09301 7.05093 7.48257C4.71895 9.87212 2.88946 12.7056 1.67071 15.8154C0.451955 18.9253 -0.131296 22.2482 -0.0445355 25.5876C0.0422251 28.927 0.797234 32.2151 2.17582 35.2573C3.5544 38.2995 5.52856 41.034 7.98147 43.299L8.90835 44.1237C12.4257 47.0932 16.6955 49.0303 21.2448 49.7203C25.7942 50.4104 30.4455 49.8265 34.6838 48.0334C38.9221 46.2402 42.5819 43.3078 45.2579 39.5609C47.934 35.814 49.5218 31.3987 49.8455 26.8041C50.5664 20.5155 48.6612 12.4742 45.5201 2.88661ZM11.586 43.5052C11.3212 43.8309 10.966 44.0707 10.5651 44.1943C10.1642 44.3179 9.73577 44.3198 9.33382 44.1998C8.93187 44.0797 8.5745 43.8431 8.30687 43.5197C8.03924 43.1964 7.87336 42.8009 7.8302 42.3833C7.78704 41.9656 7.86853 41.5445 8.06437 41.1732C8.26022 40.8019 8.56163 40.497 8.93051 40.2971C9.29939 40.0972 9.71919 40.0113 10.1369 40.0501C10.5545 40.089 10.9513 40.2509 11.277 40.5155C11.7041 40.8775 11.9747 41.3909 12.0323 41.9481C12.0899 42.5053 11.9299 43.0633 11.586 43.5052ZM45.3656 36.0309C39.2379 44.2268 26.0556 41.4433 17.6622 41.8557C17.6622 41.8557 16.1689 41.9588 14.6756 42.165C14.6756 42.165 15.242 41.9072 15.9629 41.6495C21.8847 39.5876 24.6653 39.1753 28.2698 37.3196C35.0155 33.866 41.7611 26.2887 43.0999 18.4536C40.5252 25.9794 32.6983 32.4742 25.5922 35.1031C20.7003 36.9072 11.895 38.6598 11.895 38.6598L11.5345 38.4536C5.56128 35.5155 5.35531 22.5258 16.2719 18.3505C21.0608 16.4949 25.5922 17.5258 30.793 16.2887C36.3028 15 42.688 10.8763 45.2626 5.46393C48.1462 14.1753 51.6478 27.6804 45.3656 36.0309Z" fill="#6DB33F"/>
</g>
<defs>
<clipPath id="clip0_205_331">
<rect width="50" height="50" fill="white"/>
</clipPath>
</defs>
</svg>
