<svg width="24" height="24" viewBox="0 0 24 24" fill="none" xmlns="http://www.w3.org/2000/svg">
<path d="M13.2307 9.337L13.2908 9.47298L13.4391 9.485L17.3482 9.80204C17.3482 9.80205 17.3483 9.80205 17.3483 9.80205C17.4321 9.80892 17.5127 9.84071 17.58 9.8942C17.6473 9.94769 17.6984 10.0207 17.7264 10.1046C17.7837 10.2778 17.7342 10.4673 17.6038 10.5875L14.4936 13.4443L14.3806 13.5481L14.422 13.6958L15.6759 18.1745C15.676 18.1746 15.676 18.1747 15.676 18.1749C15.7007 18.2642 15.698 18.3593 15.6683 18.447C15.6386 18.5347 15.5835 18.6102 15.5114 18.6638C15.4394 18.7174 15.3537 18.7468 15.2658 18.7488C15.178 18.7507 15.0913 18.7253 15.0173 18.6752C15.0171 18.6752 15.017 18.6751 15.0169 18.675L11.2835 16.1346L11.1429 16.0389L11.0023 16.1346L7.26853 18.6753L7.26825 18.6754C7.19576 18.7249 7.11094 18.7507 7.02477 18.75C6.93859 18.7493 6.85414 18.7222 6.78236 18.6716C6.71051 18.621 6.65446 18.5489 6.62232 18.4641C6.59016 18.3793 6.58366 18.2863 6.60382 18.1975L6.60386 18.1973L7.62558 13.6815L7.65609 13.5466L7.55808 13.4491L4.66914 10.5746L4.66913 10.5746C4.60881 10.5146 4.56616 10.4375 4.54701 10.3524C4.52784 10.2672 4.53315 10.1782 4.56219 10.0962C4.59121 10.0142 4.64249 9.94324 4.70916 9.89134C4.77577 9.83949 4.85504 9.80872 4.93742 9.80206L4.93748 9.80206L8.84676 9.485L8.99499 9.47298L9.05517 9.33698L10.7468 5.51409L10.7471 5.5134C10.782 5.43389 10.8384 5.36717 10.9087 5.32072C10.9789 5.27432 11.0603 5.24995 11.143 5.25C11.2257 5.25005 11.307 5.2745 11.3772 5.32099C11.4475 5.36751 11.5038 5.4343 11.5386 5.51385L11.539 5.5148L13.2307 9.337Z" fill="#FFA200" stroke="black" stroke-width="0.5"/>
<path d="M20.6528 11.7132L20.6752 11.7709L20.7368 11.7767L21.7548 11.871C21.7548 11.871 21.7548 11.871 21.7548 11.871C21.7666 11.8721 21.7798 11.8774 21.7924 11.8888C21.8052 11.9005 21.8166 11.9179 21.8231 11.9402L21.9191 11.9123L21.823 11.9401C21.8368 11.9878 21.8235 12.0373 21.7969 12.0653L20.987 12.9156L20.9493 12.9552L20.9623 13.0084L21.2889 14.3414C21.2889 14.3415 21.2889 14.3415 21.2889 14.3416C21.2947 14.3655 21.294 14.3911 21.2871 14.4143C21.2802 14.4376 21.268 14.4555 21.2545 14.4669C21.2413 14.4782 21.2276 14.4828 21.2154 14.4831C21.2032 14.4834 21.1896 14.4795 21.1764 14.4693L20.2042 13.7132L20.1428 13.6654L20.0814 13.7132L19.1091 14.4694L19.109 14.4695C19.096 14.4796 19.0827 14.4836 19.0708 14.4835C19.0589 14.4834 19.0455 14.4792 19.0325 14.4687C19.0193 14.458 19.0071 14.4412 18.9996 14.4189C18.9922 14.3965 18.9906 14.3715 18.9954 14.3476L18.9954 14.3475L19.2615 13.0034L19.271 12.955L19.2385 12.9179L18.4861 12.0623L18.4861 12.0623C18.474 12.0485 18.4643 12.0294 18.4598 12.0065C18.4553 11.9836 18.4566 11.9596 18.4633 11.9379C18.47 11.9163 18.4813 11.8994 18.4939 11.8882C18.5063 11.8772 18.5192 11.8721 18.5308 11.871L18.5308 11.871L19.5489 11.7767L19.6105 11.7709L19.6329 11.7132L20.0734 10.5753L20.0735 10.575C20.0815 10.5543 20.0935 10.539 20.1062 10.5294C20.1187 10.52 20.1314 10.5163 20.1428 10.5163C20.1543 10.5163 20.167 10.5201 20.1794 10.5295C20.1922 10.5391 20.2042 10.5544 20.2121 10.5751L20.2123 10.5755L20.6528 11.7132Z" fill="#FFA200" stroke="black" stroke-width="0.2"/>
<path d="M17.8007 4.77228L17.776 4.71923L17.2474 3.58152L17.2472 3.58113C17.2386 3.56238 17.2244 3.54601 17.2059 3.53434C17.1873 3.52265 17.1655 3.51627 17.1429 3.51626C17.1203 3.51625 17.0984 3.5226 17.0799 3.53427C17.0613 3.54593 17.0471 3.56228 17.0385 3.58102L17.0383 3.5813L16.5097 4.71922L16.485 4.77228L16.4267 4.77679L15.2051 4.87116L15.205 4.87117C15.1826 4.8729 15.1614 4.88087 15.1439 4.89382C15.1265 4.90674 15.1136 4.92397 15.1065 4.94318C15.0994 4.96237 15.0981 4.98302 15.1028 5.00279C15.1074 5.02257 15.118 5.04102 15.1335 5.05575L15.1335 5.05576L16.0363 5.91138L16.0781 5.95101L16.0648 6.00707L15.7455 7.35124L15.7455 7.35131C15.7406 7.37192 15.7421 7.39349 15.75 7.41336C15.758 7.43326 15.7721 7.45086 15.7909 7.46354C15.8098 7.47624 15.8325 7.4833 15.8561 7.48348C15.8796 7.48365 15.9024 7.47693 15.9216 7.46449L15.9217 7.46442L17.0885 6.70817L17.1429 6.67292L17.1973 6.70817L18.3639 7.46432C18.3835 7.47696 18.4068 7.48363 18.4309 7.48312C18.4549 7.4826 18.4779 7.47494 18.4968 7.46153C18.5157 7.44814 18.5295 7.42977 18.5368 7.40923C18.5441 7.38876 18.5447 7.36674 18.5387 7.34595L17.8007 4.77228ZM17.8007 4.77228L17.859 4.77679L19.0806 4.87116C19.0806 4.87116 19.0806 4.87116 19.0806 4.87116C19.1035 4.87295 19.1251 4.88119 19.1427 4.89453C19.1603 4.90786 19.1731 4.92558 19.18 4.94526L17.8007 4.77228Z" fill="#FFA200" stroke="black" stroke-width="0.2"/>
</svg>
