<svg width="32" height="24" viewBox="0 0 32 24" fill="none" xmlns="http://www.w3.org/2000/svg">
<path d="M19.0585 9.39167C19.0756 9.26667 19.0842 9.1375 19.0842 9C19.0842 8.86667 19.0756 8.73333 19.0542 8.60833L19.9238 7.95C20.0009 7.89167 20.0223 7.77917 19.9752 7.69583L19.1527 6.3125C19.1013 6.22083 18.9942 6.19167 18.9 6.22083L17.8762 6.62083C17.662 6.4625 17.435 6.32917 17.1823 6.22917L17.0281 5.17083C17.0109 5.07083 16.9253 5 16.8224 5H15.1776C15.0747 5 14.9934 5.07083 14.9762 5.17083L14.822 6.22917C14.5693 6.32917 14.338 6.46667 14.1281 6.62083L13.1043 6.22083C13.0101 6.1875 12.903 6.22083 12.8516 6.3125L12.0334 7.69583C11.982 7.78333 11.9991 7.89167 12.0848 7.95L12.9544 8.60833C12.933 8.73333 12.9158 8.87083 12.9158 9C12.9158 9.12917 12.9244 9.26667 12.9458 9.39167L12.0762 10.05C11.9991 10.1083 11.9777 10.2208 12.0248 10.3042L12.8473 11.6875C12.8987 11.7792 13.0058 11.8083 13.1 11.7792L14.1238 11.3792C14.338 11.5375 14.565 11.6708 14.8177 11.7708L14.9719 12.8292C14.9934 12.9292 15.0747 13 15.1776 13H16.8224C16.9253 13 17.0109 12.9292 17.0238 12.8292L17.178 11.7708C17.4307 11.6708 17.662 11.5375 17.8719 11.3792L18.8957 11.7792C18.9899 11.8125 19.097 11.7792 19.1484 11.6875L19.9709 10.3042C20.0223 10.2125 20.0009 10.1083 19.9195 10.05L19.0585 9.39167ZM16 10.5C15.1519 10.5 14.4579 9.825 14.4579 9C14.4579 8.175 15.1519 7.5 16 7.5C16.8481 7.5 17.5421 8.175 17.5421 9C17.5421 9.825 16.8481 10.5 16 10.5Z" fill="#F4F4F4"/>
<path d="M29.0909 0H2.90909C1.30909 0 0 1.08 0 2.4V16.8C0 18.12 1.30909 19.2 2.90909 19.2H13.0909L10.1818 22.8V24H21.8182V22.8L18.9091 19.2H29.0909C30.6909 19.2 32 18.12 32 16.8V2.4C32 1.08 30.6909 0 29.0909 0ZM29.0909 14.4H2.90909V2.4H29.0909V14.4Z" fill="#F4F4F4"/>
</svg>
