<svg width="30" height="30" viewBox="0 0 30 30" fill="none" xmlns="http://www.w3.org/2000/svg">
<path d="M24.9334 3.82501H5.06671C3.69715 3.82501 2.58337 4.93879 2.58337 6.30835V23.6917C2.58337 25.0612 3.69715 26.175 5.06671 26.175H24.9334C26.3029 26.175 27.4167 25.0612 27.4167 23.6917V6.30835C27.4167 4.93879 26.3029 3.82501 24.9334 3.82501ZM5.06671 23.6917V8.79168H24.9334L24.9359 23.6917H5.06671Z" fill="white"/>
<path d="M11.6388 11.6389L7.03598 16.2417L11.6388 20.8446L13.3946 19.0889L10.5474 16.2417L13.3946 13.3946L11.6388 11.6389ZM18.3612 11.6389L16.6055 13.3946L19.4526 16.2417L16.6055 19.0889L18.3612 20.8446L22.9641 16.2417L18.3612 11.6389Z" fill="white"/>
</svg>
