<svg width="23" height="14" viewBox="0 0 23 14" fill="none" xmlns="http://www.w3.org/2000/svg">
<path fill-rule="evenodd" clip-rule="evenodd" d="M11.7002 3.34247C14.8922 3.34259 17.9622 4.40532 20.2756 6.311C20.4498 6.45813 20.7282 6.45627 20.8998 6.30684L22.565 4.85066C22.6519 4.77487 22.7003 4.6722 22.6996 4.56538C22.6989 4.45857 22.6491 4.3564 22.5612 4.2815C16.4893 -0.760499 6.91017 -0.760499 0.838282 4.2815C0.750326 4.35635 0.700421 4.45848 0.69961 4.5653C0.698799 4.67212 0.747149 4.77481 0.83396 4.85066L2.49967 6.30684C2.67113 6.4565 2.94979 6.45835 3.12389 6.311C5.43757 4.40519 8.50787 3.34246 11.7002 3.34247ZM11.7461 7.7386C13.4999 7.73851 15.1911 8.30334 16.4911 9.32334C16.6669 9.46811 16.9439 9.46497 17.1153 9.31627L18.7786 7.86009C18.8662 7.78371 18.9148 7.68009 18.9136 7.57242C18.9123 7.46474 18.8613 7.362 18.7719 7.28718C14.8131 4.09641 8.68239 4.09641 4.72359 7.28718C4.63416 7.362 4.58314 7.46479 4.58197 7.5725C4.5808 7.68021 4.62957 7.78382 4.71734 7.86009L6.38017 9.31627C6.55158 9.46497 6.82856 9.46811 7.00439 9.32334C8.30355 8.30401 9.99343 7.73923 11.7461 7.7386ZM15.1284 10.5809C15.131 10.6888 15.082 10.7929 14.993 10.8686L12.1158 13.3845C12.0315 13.4584 11.9165 13.5 11.7965 13.5C11.6766 13.5 11.5616 13.4584 11.4772 13.3845L8.59956 10.8686C8.51067 10.7929 8.46176 10.6887 8.4644 10.5808C8.46704 10.4728 8.52098 10.3705 8.61349 10.2982C10.451 8.95155 13.1421 8.95155 14.9796 10.2982C15.072 10.3706 15.1259 10.4729 15.1284 10.5809Z" fill="black"/>
</svg>
