<svg width="37" height="50" viewBox="0 0 37 50" fill="none" xmlns="http://www.w3.org/2000/svg">
<path d="M11.9441 38.6685C11.9441 38.6685 10.0335 39.7791 13.3029 40.1559C16.753 40.6413 20.2627 40.4924 23.6593 39.7166C24.5355 40.2419 25.4548 40.6917 26.4073 41.0612C16.6205 45.2555 4.25717 40.8183 11.9441 38.6703" fill="#5382A1"/>
<path d="M10.7406 33.1939C10.7406 33.1939 8.59793 34.7795 11.8709 35.1188C16.3282 35.6489 20.8427 35.4323 25.2288 34.4778C25.8218 35.0307 26.5219 35.4561 27.2858 35.7277C15.4528 39.1881 2.27162 36.0009 10.7406 33.1904" fill="#5382A1"/>
<path d="M20.8238 23.9089C21.1409 24.2916 21.3768 24.7349 21.5171 25.2117C21.6573 25.6885 21.6991 26.1889 21.6398 26.6824C21.5805 27.1758 21.4214 27.6521 21.1721 28.0821C20.9228 28.5121 20.5887 28.8868 20.1899 29.1835C20.1899 29.1835 26.3127 26.023 23.5004 22.0644C20.8738 18.3736 18.8579 16.538 29.7642 10.2153C29.7642 10.2153 12.6476 14.49 20.8238 23.9089Z" fill="#E76F00"/>
<path d="M33.7675 42.7164C33.7675 42.7164 35.1816 43.8806 32.2104 44.7823C26.5608 46.4929 8.69791 47.0107 3.734 44.8502C1.94842 44.0735 5.29459 42.9968 6.34809 42.7718C6.91242 42.6339 7.49211 42.5691 8.07296 42.5789C6.08918 41.1808 -4.74929 45.3234 2.56801 46.5072C22.5237 49.7427 38.9438 45.052 33.7675 42.7164Z" fill="#5382A1"/>
<path d="M12.8565 27.5228C12.8565 27.5228 3.7697 29.6816 9.64248 30.4655C13.6447 30.7761 17.6665 30.7331 21.6612 30.3369C25.4216 30.0191 29.1981 29.3459 29.1981 29.3459C28.4044 29.6909 27.64 30.1 26.9126 30.569C17.6812 32.9938 -0.144286 31.8654 4.98033 29.3816C7.41813 28.1447 10.1157 27.5068 12.8494 27.521" fill="#5382A1"/>
<path d="M29.1571 36.6347C38.5367 31.7601 34.1996 27.0765 31.173 27.7068C30.8089 27.7742 30.4506 27.8703 30.1017 27.9943C30.3004 27.7121 30.5799 27.4967 30.9034 27.3765C36.8922 25.2713 41.4972 33.5867 28.9696 36.8793C29.0479 36.81 29.1121 36.7264 29.1589 36.6329" fill="#5382A1"/>
<path d="M23.5004 0.00357111C23.5004 0.00357111 28.6946 5.19961 18.574 13.1919C10.4567 19.6021 16.7223 23.2572 18.574 27.4319C13.8368 23.1572 10.3603 19.3968 12.6923 15.8917C16.1152 10.751 25.6002 8.25831 23.5057 0" fill="#E76F00"/>
<path d="M13.7779 49.8426C22.7808 50.4194 36.6083 49.523 36.9351 45.2626C36.9351 45.2626 36.3048 46.8697 29.4946 48.1606C21.9639 49.4549 14.2782 49.5753 6.71057 48.5177C6.71057 48.5177 7.86227 49.4695 13.7797 49.8498" fill="#5382A1"/>
</svg>
