<svg width="50" height="50" viewBox="0 0 50 50" fill="none" xmlns="http://www.w3.org/2000/svg">
<g clip-path="url(#clip0_205_162)">
<path d="M44.1898 10.182C36.0066 -0.414849 20.7812 -2.3711 10.184 5.81367C-0.41174 13.9984 -2.36604 29.2238 5.81873 39.8195C14.0051 50.4148 29.2316 52.368 39.8258 44.1816C50.4172 35.9969 52.3719 20.7762 44.1898 10.182Z" fill="#F37036"/>
<path d="M35.5808 9.43906C34.7462 9.50575 33.9549 9.83784 33.3226 10.3867C32.5825 11.0292 32.1102 11.9259 31.9988 12.8996C31.8875 13.8733 32.1452 14.8535 32.7211 15.6465C33.2962 16.4399 34.1478 16.9889 35.1078 17.1852C36.0678 17.3816 37.0666 17.2109 37.907 16.707H37.9078L37.9687 16.768C38.2455 16.6093 38.5031 16.4192 38.7363 16.2016C39.4557 15.4406 39.8514 14.4299 39.84 13.3828C39.8287 12.3357 39.4111 11.3339 38.6754 10.5887V10.5879L35.2207 14.0211L35.1597 13.9605L38.6144 10.5258C38.2146 10.1402 37.7373 9.84403 37.2143 9.65682C36.6913 9.46961 36.1346 9.39565 35.5808 9.43985V9.43906ZM31.0324 15.059C29.3761 15.0563 26.6719 16.9336 20.0687 23.5367L20.1015 23.5703C20.0656 23.5578 20.0293 23.5566 20.0293 23.5566L17.5433 26.0207C17.4795 26.0814 17.4372 26.1613 17.423 26.2483C17.4088 26.3352 17.4233 26.4244 17.4644 26.5024C17.5056 26.5803 17.571 26.6426 17.6508 26.6799C17.7306 26.7172 17.8205 26.7274 17.9066 26.709L22.1699 25.7996C22.1887 25.7819 22.2013 25.7586 22.2058 25.7332L22.3004 25.8309L20.8472 27.2723H20.7769L12.1496 35.9676L14.9176 38.6332C14.995 38.703 15.0926 38.7462 15.1963 38.7567C15.3 38.7672 15.4043 38.7443 15.4941 38.6914C15.5847 38.6389 15.6572 38.5602 15.7022 38.4656C15.7472 38.3711 15.7625 38.2651 15.7461 38.1617L15.3418 36.4039C15.3166 36.3686 15.303 36.3262 15.303 36.2828C15.303 36.2394 15.3166 36.1971 15.3418 36.1617C19.1207 34.3602 22.635 32.0493 25.7863 29.2934L24.0148 27.5211L24.0484 27.5156L22.9976 26.4652L23.0648 26.3973L23.1359 26.4699L23.0992 26.5055L25.8871 29.3543V29.3531C31.2308 24.293 35.0238 20.2254 34.0375 17.4879C33.9925 17.1605 33.8405 16.8573 33.6051 16.6254V16.627C33.5453 16.5824 33.4822 16.5424 33.4164 16.5074C33.384 16.473 33.3554 16.4379 33.3211 16.4043L33.2953 16.4301C33.2229 16.3859 33.1468 16.348 33.0679 16.3168L33.1808 16.2027C32.4793 15.5777 31.8996 15.0605 31.0324 15.0582V15.059ZM12.0894 36.0195L10.0695 38.0398V38.0414C9.99703 38.0863 9.94069 38.153 9.90861 38.232C9.87652 38.311 9.87035 38.3981 9.89099 38.4809C9.91092 38.5635 9.95642 38.6378 10.021 38.6932C10.0856 38.7485 10.166 38.7821 10.2508 38.7891L15.2008 39.1309L12.0894 36.0195Z" fill="white"/>
<path d="M35.9215 9.10547C34.7877 9.10406 33.699 9.54888 32.8906 10.3438C32.3154 10.9324 31.9216 11.6741 31.756 12.4803C31.5905 13.2865 31.6603 14.1233 31.957 14.891C30.1051 14.098 27.5996 15.4809 19.8062 23.2727C19.8008 23.2846 19.7959 23.2969 19.7918 23.3094C19.7759 23.3166 19.7603 23.3247 19.7453 23.3336L17.2808 25.8195C17.1627 25.9355 17.0851 26.0864 17.0596 26.25C17.034 26.4135 17.0619 26.5809 17.139 26.7273C17.2079 26.8432 17.3054 26.9394 17.4222 27.0067C17.5389 27.0741 17.6711 27.1102 17.8058 27.1117L17.9281 27.0324L21.2187 26.3305L19.6445 27.9191C19.6353 27.94 19.6283 27.9617 19.6234 27.984L11.9086 35.718C11.8778 35.7438 11.8523 35.7754 11.8336 35.8109L9.84685 37.7992C9.74784 37.9037 9.68018 38.034 9.65159 38.1751C9.62299 38.3162 9.63462 38.4625 9.68513 38.5973C9.73694 38.7313 9.82477 38.8483 9.93893 38.9355C10.0531 39.0227 10.1891 39.0767 10.332 39.0914L15.2609 39.4352C15.345 39.4056 15.4166 39.3485 15.464 39.273C15.5064 39.2142 15.5292 39.1434 15.5292 39.0709C15.5292 38.9984 15.5064 38.9276 15.464 38.8688L15.4539 38.859C15.5602 38.8031 15.654 38.726 15.7293 38.6324C15.8084 38.5297 15.8637 38.4106 15.8912 38.2839C15.9186 38.1571 15.9175 38.0259 15.8879 37.8996L15.5035 36.2641C19.1912 34.5017 22.6464 32.2894 25.7902 29.6777C25.8207 29.6951 25.8533 29.7086 25.8871 29.718C25.9863 29.7106 26.0793 29.668 26.1496 29.5977C31.4426 24.5859 34.5539 21.1516 34.5539 18.425C34.5654 18.0468 34.5083 17.6696 34.3855 17.3117C34.8625 17.5095 35.3714 17.6194 35.8875 17.6359L35.8816 17.6375C36.5924 17.6158 37.2873 17.4214 37.9062 17.0711C37.9067 17.0712 37.9073 17.0714 37.9078 17.0715C37.9879 17.0955 38.0742 17.0878 38.1488 17.05C38.4474 16.8741 38.7197 16.6569 38.9574 16.4047C39.3602 16.0094 39.6802 15.5379 39.8988 15.0176C40.1173 14.4972 40.2299 13.9386 40.2301 13.3742C40.23 12.8099 40.1174 12.2513 39.8989 11.7309C39.6805 11.2106 39.3605 10.739 38.9578 10.3438C38.9434 10.3307 38.928 10.3188 38.9117 10.3082C38.1076 9.53612 37.0358 9.10523 35.9211 9.10586L35.9215 9.10547ZM35.8875 9.79766C36.6769 9.80237 37.4431 10.0649 38.0695 10.5453L34.9179 13.716C34.9071 13.728 34.8972 13.7408 34.8883 13.7543C34.8315 13.8118 34.7982 13.8884 34.7949 13.9691C34.7949 14.0179 34.8059 14.0661 34.8271 14.11C34.8482 14.154 34.879 14.1926 34.9172 14.223H34.9179L37.3008 16.6059C36.6485 16.8903 35.9256 16.9711 35.2266 16.8378C34.5277 16.7044 33.8853 16.3632 33.3836 15.8586C32.3734 14.843 32.0804 13.318 32.6207 11.9949C33.1609 10.6707 34.4488 9.80547 35.8875 9.79766ZM38.6687 11.1383C39.184 11.7617 39.465 12.5458 39.4629 13.3547C39.4614 14.3023 39.0837 15.2105 38.4129 15.8797C38.2784 16.0062 38.135 16.1231 37.984 16.2293L36.0609 14.3359L35.6847 13.9598L35.7883 13.8563L38.6683 11.1375L38.6687 11.1383ZM38.5258 12.7762C38.4551 12.7538 38.3786 12.7581 38.3109 12.7883C38.2439 12.823 38.1933 12.8828 38.1703 12.9547C38.159 12.9906 38.1549 13.0283 38.1582 13.0658C38.1616 13.1033 38.1723 13.1397 38.1898 13.173C38.2592 13.319 38.2866 13.4814 38.2689 13.642C38.2512 13.8026 38.189 13.9551 38.0894 14.0824C38.064 14.107 38.044 14.1367 38.0309 14.1696C38.0177 14.2024 38.0117 14.2377 38.0133 14.2731C38.0148 14.3449 38.0406 14.4137 38.0894 14.4652C38.1415 14.4851 38.1991 14.4851 38.2512 14.4652C38.2981 14.477 38.3474 14.4756 38.3937 14.4614C38.4399 14.4471 38.4814 14.4205 38.5136 14.3844C38.6799 14.1806 38.7851 13.9339 38.8172 13.6729C38.8494 13.4118 38.8071 13.147 38.6953 12.909V12.9105C38.6572 12.8465 38.5969 12.7986 38.5258 12.7762ZM30.9957 15.4023C31.4671 15.418 31.9208 15.586 32.2887 15.8813C31.8923 15.9383 31.5249 16.1219 31.2414 16.4047L22.3324 25.2738L20.584 23.5254C25.2043 18.927 28.0293 16.525 29.7855 15.7379C30.1473 15.5097 30.5681 15.3933 30.9957 15.4023ZM32.5445 16.5586C32.8437 16.5586 33.1306 16.6772 33.3426 16.8883C33.4554 16.9941 33.5443 17.1227 33.6036 17.2655C33.6628 17.4084 33.6908 17.5622 33.6859 17.7168C33.6808 17.8708 33.644 18.0221 33.5778 18.1612C33.5116 18.3003 33.4174 18.4243 33.3011 18.5254L23.8285 26.7699L22.8062 25.7477L31.7465 16.8883C31.9585 16.6773 32.2454 16.5585 32.5445 16.5586ZM33.714 19.175C33.0539 21.793 29.5551 25.3402 25.9066 28.7871L24.4312 27.3133L33.714 19.175ZM20.0687 24.0418L20.1758 24.1473L21.548 25.5195L17.7863 26.3242L20.0687 24.0418ZM22.3316 26.323L22.3332 26.3246L22.7894 26.7914C22.7913 26.8024 22.7937 26.8134 22.7965 26.8242L22.8269 26.8289L22.9238 26.9281L23.2441 27.2563L21.1406 27.5141L22.332 26.3227L22.3316 26.323ZM23.8422 27.9152L25.2398 29.3121C22.1493 31.882 18.7579 34.0668 15.1402 35.8184C15.0228 35.8743 14.9283 35.9692 14.873 36.0869C14.8176 36.2047 14.8048 36.3379 14.8367 36.4641L15.241 38.2219C15.2559 38.2425 15.2639 38.2673 15.2639 38.2928C15.2639 38.3182 15.2559 38.343 15.241 38.3637C15.2188 38.3836 15.19 38.3946 15.1601 38.3946C15.1303 38.3946 15.1015 38.3836 15.0793 38.3637L12.6957 35.9605L20.0426 28.5059L23.8422 27.9152ZM12.1496 36.4855L12.489 36.8035L14.2437 38.5582L10.3312 38.3051L12.1496 36.4855Z" fill="#F37036"/>
</g>
<defs>
<clipPath id="clip0_205_162">
<rect width="50" height="50" fill="white" transform="translate(0.00349426)"/>
</clipPath>
</defs>
</svg>
